HIERARCHY
ROOT SpineBase
{
  OFFSET 0.000000 0.000000 0.000000
  CHANNELS 6 Xposition Yposition Zposition Zrotation Xrotation Yrotation
  JOINT SpineMid
  {
    OFFSET 0.000000 29.338115 0.000000
    CHANNELS 3 Zrotation Xrotation Yrotation
    JOINT SpineShoulder
    {
      OFFSET -0.142244 21.849837 -0.741009
      CHANNELS 3 Zrotation Xrotation Yrotation
      JOINT Neck
      {
        OFFSET -0.096865 7.258814 -0.551551
        CHANNELS 3 Zrotation Xrotation Yrotation
        JOINT Head
        {
          OFFSET -3.083901 13.508068 -0.479460
          CHANNELS 3 Zrotation Xrotation Yrotation
          End Site
          {
            OFFSET 0 0 0
          }
        }
      }
      JOINT ShoulderLeft
      {
        OFFSET -16.061892 -2.559976 8.925877
        CHANNELS 3 Zrotation Xrotation Yrotation
        JOINT ElbowLeft
        {
          OFFSET -0.785341 -28.073661 1.936888
          CHANNELS 3 Zrotation Xrotation Yrotation
          JOINT WristLeft
          {
            OFFSET -1.068689 -21.812321 -2.651858
            CHANNELS 3 Zrotation Xrotation Yrotation
            JOINT HandLeft
            {
              OFFSET 0.072884 -6.010505 -1.094392
              CHANNELS 3 Zrotation Xrotation Yrotation
              JOINT HandTipLeft
              {
                OFFSET 1.226073 -6.134042 -0.109827
                CHANNELS 3 Zrotation Xrotation Yrotation
                End Site
                {
                  OFFSET 0 0 0
                }
              }
              JOINT ThumbLeft
              {
                OFFSET 2.275554 -0.968863 -4.510036
                CHANNELS 3 Zrotation Xrotation Yrotation
                End Site
                {
                  OFFSET 0 0 0
                }
              }
            }
          }
        }
      }
      JOINT ShoulderRight
      {
        OFFSET 13.751108 -1.785945 -9.895159
        CHANNELS 3 Zrotation Xrotation Yrotation
        JOINT ElbowRight
        {
          OFFSET 7.806841 -25.880348 -0.937351
          CHANNELS 3 Zrotation Xrotation Yrotation
          JOINT WristRight
          {
            OFFSET 2.095828 -26.729523 -9.966267
            CHANNELS 3 Zrotation Xrotation Yrotation
            JOINT HandRight
            {
              OFFSET -0.851868 -6.681283 -4.844011
              CHANNELS 3 Zrotation Xrotation Yrotation
              JOINT HandTipRight
              {
                OFFSET 0.971251 -5.312527 -5.715488
                CHANNELS 3 Zrotation Xrotation Yrotation
                End Site
                {
                  OFFSET 0 0 0
                }
              }
              JOINT ThumbRight
              {
                OFFSET -4.789756 0.520491 -1.496748
                CHANNELS 3 Zrotation Xrotation Yrotation
                End Site
                {
                  OFFSET 0 0 0
                }
              }
            }
          }
        }
      }
    }
  }
  JOINT HipLeft
  {
    OFFSET -6.067993 0.352243 -0.325194
    CHANNELS 3 Zrotation Xrotation Yrotation
    JOINT KneeLeft
    {
      OFFSET 2.168948 -35.245088 3.731865
      CHANNELS 3 Zrotation Xrotation Yrotation
      JOINT AnkleLeft
      {
        OFFSET 8.223992 -30.202905 6.552977
        CHANNELS 3 Zrotation Xrotation Yrotation
        JOINT FootLeft
        {
          OFFSET -6.698250 -3.188022 -12.316054
          CHANNELS 3 Zrotation Xrotation Yrotation
          End Site
          {
            OFFSET 0 0 0
          }
        }
      }
    }
  }
  JOINT HipRight
  {
    OFFSET 5.540896 2.048984 -6.419730
    CHANNELS 3 Zrotation Xrotation Yrotation
    JOINT KneeRight
    {
      OFFSET 5.707768 -32.157259 -1.710868
      CHANNELS 3 Zrotation Xrotation Yrotation
      JOINT AnkleRight
      {
        OFFSET 4.804188 -32.907185 6.920224
        CHANNELS 3 Zrotation Xrotation Yrotation
        JOINT FootRight
        {
          OFFSET -5.563628 -3.373304 -11.537025
          CHANNELS 3 Zrotation Xrotation Yrotation
          End Site
          {
            OFFSET 0 0 0
          }
        }
      }
    }
  }
}
MOTION
Frames: 9
Frame Time: 0.033333
23.360328 82.837065 295.571765 -0.783307 -0.668273 45.171532 -0.472944 -0.307209 -45.218882 -0.289666 -0.554394 -0.078145 8.857797 0.971809 -0.001355 0.000000 0.000000 0.000000 -4.024555 -11.126881 -0.328318 -0.679295 -0.918558 1.440775 -1.013562 -1.112632 -0.262984 0.510450 15.673479 0.008752 0.000000 0.000000 0.000000 0.000000 0.000000 0.000000 -27.580142 60.485794 38.711700 -12.781042 -3.640446 -15.094337 5.573902 1.029645 -3.203075 -1.146478 -14.607358 13.679744 0.000000 0.000000 0.000000 0.000000 0.000000 0.000000 -8.664749 -4.097732 -46.542267 1.881352 7.793554 0.028862 17.096856 -30.386651 -39.154386 0.000000 0.000000 0.000000 4.521396 6.917020 -43.932856 0.415105 4.139197 -0.095093 4.062500 -21.312181 12.261252 0.000000 0.000000 0.000000
23.591101 83.095183 293.766487 -0.846946 -0.808372 46.110930 -0.536876 -0.286510 -46.164807 -0.302893 -0.581841 -0.085802 8.801558 0.481341 -0.132589 0.000000 0.000000 0.000000 -4.415046 -12.623022 -0.415538 -0.193192 -0.168581 1.465339 1.034186 -2.351303 -1.025972 -4.304080 24.423646 3.565119 0.000000 0.000000 0.000000 0.000000 0.000000 0.000000 -35.631746 58.476416 43.343450 -14.476691 -3.575084 -14.187328 6.742125 -4.128345 -2.140808 -3.896841 -12.680831 14.873342 0.000000 0.000000 0.000000 0.000000 0.000000 0.000000 -9.227929 -3.700523 -47.552666 2.823123 7.862960 0.002767 14.387758 -19.337510 -17.679873 0.000000 0.000000 0.000000 3.911926 5.658768 -45.078265 0.276974 4.605734 0.055621 6.297913 -23.386655 11.601217 0.000000 0.000000 0.000000
23.627662 83.078137 292.388669 -0.885687 -1.027843 46.694639 -0.572658 -0.200777 -46.754343 -0.307606 -0.551041 -0.091734 8.355977 0.041359 -0.251115 0.000000 0.000000 0.000000 -4.905479 -16.491196 -0.600980 0.313547 3.929459 1.531556 2.250459 -7.491919 -1.665324 -12.300057 42.980432 12.372568 0.000000 0.000000 0.000000 0.000000 0.000000 0.000000 -37.699441 56.165979 43.222321 -16.339252 -1.604158 -12.619891 5.673267 -3.810745 -0.823084 -3.449229 -15.736467 14.280777 0.000000 0.000000 0.000000 0.000000 0.000000 0.000000 -9.274582 -3.081333 -48.117257 3.628280 7.600703 -0.013327 7.899755 -9.220162 0.340665 0.000000 0.000000 0.000000 4.013006 5.255452 -45.745767 0.306210 3.892000 0.017040 7.389584 -24.045657 11.112243 0.000000 0.000000 0.000000
23.776791 83.073300 290.666992 -0.844304 -1.191146 47.672530 -0.574013 -0.044838 -47.732518 -0.300464 -0.468971 -0.092414 8.538892 0.807712 -0.114620 0.000000 0.000000 0.000000 -5.216853 -16.121724 -0.659564 0.558243 3.794313 1.527918 3.785692 -9.361143 -2.116685 -30.629060 49.048490 26.238994 0.000000 0.000000 0.000000 0.000000 0.000000 0.000000 -37.570282 58.166664 44.706498 -21.377818 -3.658386 -15.960533 -16.374159 20.622916 13.335487 12.470546 -41.700284 6.549692 0.000000 0.000000 0.000000 0.000000 0.000000 0.000000 -10.207232 -2.526981 -49.179955 4.627480 8.153853 0.024360 5.517368 -6.823808 5.561438 0.000000 0.000000 0.000000 3.021323 4.575403 -46.898782 0.833374 4.042268 0.138835 7.243459 -23.304577 12.187611 0.000000 0.000000 0.000000
24.377737 82.926390 289.158365 -0.140487 -1.145647 47.976878 -0.753913 0.158157 -48.007846 -0.504755 -0.322435 -0.082097 8.749275 1.256194 0.004406 0.000000 0.000000 0.000000 -5.421081 -13.037648 -0.590338 0.212114 0.833696 1.554739 5.864371 -9.373002 -2.579148 -32.878405 32.471949 19.341878 0.000000 0.000000 0.000000 0.000000 0.000000 0.000000 -34.505029 61.075341 44.392259 -25.588733 -5.991053 -19.915809 -19.172171 25.910090 17.422534 11.989844 -45.364870 5.616185 0.000000 0.000000 0.000000 0.000000 0.000000 0.000000 -12.235003 -1.190039 -49.509402 6.183982 8.878908 0.080594 5.539554 -6.916084 5.598511 0.000000 0.000000 0.000000 0.685726 6.132165 -47.122380 3.645306 3.254635 0.150977 5.290574 -20.592006 13.125622 0.000000 0.000000 0.000000
23.839036 82.902152 288.014542 -0.771468 -1.108884 48.605290 -0.548018 0.046071 -48.660561 -0.320421 -0.463441 -0.091613 9.521782 2.524783 0.209220 0.000000 0.000000 0.000000 -4.735633 -6.583515 -0.328029 -3.194953 -9.582853 1.717308 10.633797 -5.221676 -4.355817 -40.455491 15.043279 14.092661 0.000000 0.000000 0.000000 0.000000 0.000000 0.000000 -26.921356 64.949352 41.445682 -30.197564 -7.657209 -24.114482 -1.213172 13.133366 5.750777 0.663813 -25.464043 11.182862 0.000000 0.000000 0.000000 0.000000 0.000000 0.000000 -11.910368 -1.761439 -50.262799 5.928544 8.951300 0.048115 7.855736 -9.177895 0.497036 0.000000 0.000000 0.000000 0.740836 6.633657 -47.611419 5.930466 1.630416 0.183894 1.606339 -16.401205 14.138866 0.000000 0.000000 0.000000
23.126083 83.481433 286.623011 -1.666766 -0.798205 50.638320 -0.379500 -0.186609 -50.723524 -0.041746 -0.430031 -0.097601 10.046054 3.185271 0.420761 0.000000 0.000000 0.000000 -3.505322 2.074136 -0.072858 -3.084192 -17.446772 0.959348 11.593530 -5.597166 -4.477132 -36.792427 13.382162 11.596508 0.000000 0.000000 0.000000 0.000000 0.000000 0.000000 -15.790125 66.352516 34.152894 -32.435857 -8.398504 -25.873428 4.444031 1.416715 0.770151 -3.124316 -9.251616 16.044550 0.000000 0.000000 0.000000 0.000000 0.000000 0.000000 -11.792548 -2.373430 -52.482293 5.607577 9.228712 0.060014 12.508046 -15.526898 -12.023060 0.000000 0.000000 0.000000 -0.010776 5.626039 -49.748489 8.195771 1.695300 0.479834 -2.951226 -11.441428 15.181437 0.000000 0.000000 0.000000
21.427334 84.015153 285.892811 -3.579236 -0.952534 49.853773 0.059977 -0.327828 -50.009798 0.738003 -0.388821 -0.110996 10.588776 3.944997 0.623695 0.000000 0.000000 0.000000 -1.612410 11.872169 0.092026 -0.975792 -22.278894 0.705133 8.750999 -7.258890 -2.903279 -26.932992 11.543762 6.988596 0.000000 0.000000 0.000000 0.000000 0.000000 0.000000 -6.468400 66.795474 28.086589 -31.556300 -10.741920 -26.546521 -2.406990 9.153429 2.512695 -0.024629 -13.339211 14.410819 0.000000 0.000000 0.000000 0.000000 0.000000 0.000000 -9.086187 -5.473308 -51.880084 2.899401 8.875846 -0.056526 17.054219 -29.925921 -41.508880 0.000000 0.000000 0.000000 2.325752 3.635643 -48.990878 8.641018 0.417604 0.742003 -7.830013 -6.191104 16.188154 0.000000 0.000000 0.000000
20.621452 84.439836 286.022104 -4.376532 -2.191727 47.913914 0.770700 0.231503 -48.124304 0.871376 -0.150256 -0.130664 11.176829 5.196493 0.821222 0.000000 0.000000 0.000000 0.087283 20.505766 0.073298 3.344576 -22.704062 1.505788 4.113572 -6.980534 -0.979550 -18.546512 6.228192 2.877913 0.000000 0.000000 0.000000 0.000000 0.000000 0.000000 -3.432900 65.273796 25.593959 -27.114898 -11.711784 -24.467520 -0.303198 8.687246 0.012776 -2.476616 -10.619440 15.066759 0.000000 0.000000 0.000000 0.000000 0.000000 0.000000 -6.773334 -5.863013 -49.841190 2.100279 8.508428 -0.102843 16.478359 -34.441504 -52.169657 0.000000 0.000000 0.000000 4.380295 4.649947 -46.913923 10.446647 -0.836424 1.102447 -10.503033 -6.049543 18.826905 0.000000 0.000000 0.000000
